<?xml version="1.0" standalone="no"?>
<!DOCTYPE svg PUBLIC "-//W3C//DTD SVG 20010904//EN"
 "http://www.w3.org/TR/2001/REC-SVG-20010904/DTD/svg10.dtd">
<svg version="1.0" xmlns="http://www.w3.org/2000/svg"
 width="310.000000pt" height="310.000000pt" viewBox="0 0 310.000000 310.000000"
 preserveAspectRatio="xMidYMid meet">
<metadata>
Created by potrace 1.14, written by Peter Selinger 2001-2017
</metadata>
<g transform="translate(0.000000,310.000000) scale(0.100000,-0.100000)"
fill="#000000" stroke="none">
<path d="M2590 2976 c-36 -12 -193 -88 -350 -168 -298 -151 -416 -198 -564
-223 -270 -46 -480 17 -714 213 -57 48 -81 62 -106 62 -43 0 -76 -35 -76 -80
0 -80 251 -264 448 -329 220 -71 466 -57 737 44 55 20 231 104 390 185 160 81
308 150 330 153 33 6 43 3 57 -13 56 -68 18 -423 -102 -967 -27 -123 -47 -231
-43 -240 19 -54 66 -75 117 -52 33 15 38 30 90 269 87 397 126 652 126 830 0
132 -12 194 -50 254 -55 87 -159 109 -290 62z"/>
<path d="M141 2834 c-12 -15 -21 -40 -21 -57 0 -17 25 -193 55 -391 224 -1458
352 -2025 496 -2199 38 -47 96 -77 146 -77 86 0 166 73 309 280 211 307 351
454 499 525 111 53 191 70 282 60 235 -24 453 -151 753 -441 69 -67 135 -126
147 -133 30 -15 69 -4 93 26 38 48 28 67 -92 191 -521 529 -983 657 -1371 378
-135 -96 -238 -215 -466 -537 -90 -127 -143 -184 -163 -176 -44 16 -133 283
-203 602 -77 353 -200 1065 -284 1655 -37 252 -44 284 -74 305 -35 24 -82 19
-106 -11z"/>
</g>
</svg>
